<svg xmlns="http://www.w3.org/2000/svg" viewBox="0 0 700 820" role="img" aria-labelledby="title description">
  <title id="title">Map of the Korean peninsula</title>
  <desc id="description">A geographic silhouette of North and South Korea with Pyongyang, Seoul, and Gyeongju marked.</desc>
  <rect width="700" height="820" fill="#101c1a"/>
  <g fill="none" stroke="#edf0e8" stroke-opacity=".07" stroke-width="1">
    <path d="M0 156H700M0 312H700M0 468H700M0 624H700"/>
    <path d="M140 0V820M280 0V820M420 0V820M560 0V820"/>
  </g>
  <g fill="#edf0e8" fill-opacity=".055" stroke="#edf0e8" stroke-opacity=".42" stroke-width="1.5" stroke-linejoin="round">
    <path d="M446.4 357.4L443.3 358.6L437.9 365.2L432.8 373.5L428 378L422.4 380.5L416.3 382L404.3 382.6L393.5 382.1L390 381.2L375.1 381.7L370.9 382.3L349.5 381.6L338.3 382.3L331.2 383.9L323.9 387.3L317.7 392.4L312.2 397.8L301 407.7L293.2 412.6L293.1 419.5L293 421.7L290.2 423.1L289.3 422.5L284.7 422L266.5 415.6L251.6 419.5L247.8 424.5L243.8 426.2L237.8 416.3L228.1 416L212.6 407.2L206 409L204.3 412.5L195.8 420.5L183.9 427.2L180.1 428L175.7 427.6L176.3 425.8L171.5 418.3L152.7 415.3L146 412.1L142.6 411.4L160.9 403.1L165.7 401.7L162.1 399.7L158.2 398.8L143.1 400L135.2 397.3L123.8 398.2L115.9 396L132.3 387.9L133.1 383.1L132.9 379.4L141.2 368.6L149.6 362.6L171.4 354.1L180.9 353L187.7 353.3L193.4 352.5L187.4 349.3L181.7 347.8L170.4 348.1L158.7 343.2L157.7 338L180.4 305.5L180.7 302.5L177.1 294.6L176 286.9L159.8 282.4L152.6 281.9L131.7 273.2L123.4 268.8L120.2 270.1L119.6 277.1L116.6 278.6L111.1 280L108.4 272L103.9 266.3L90.1 260.4L85.1 257.2L87.5 250.2L86.3 249.6L88.5 241.8L97 235.7L117.8 225L123.1 219.9L133.7 214L138.4 214.1L143.3 213.6L144.8 211L145.9 209L150.1 207.2L160.3 203.9L171.8 199.6L181 198.4L192.3 191.9L196.9 189.1L201.5 189.1L202.7 187.7L205.4 184.4L209 182.2L213.9 181.8L222.1 180.2L232.4 179.3L239.3 173.8L241.7 170L246.3 165.7L256.1 161L262.8 154.2L270.3 146.7L273.8 144.3L277.3 143.8L279.4 141L281.8 133.1L285.2 125.4L287.3 121.8L295.9 117.8L298.1 115.9L300 115.2L304 115.7L309.4 113.4L314.4 110.8L319 111.7L323.7 113.9L328.6 118.1L330.7 121.5L334.6 124.4L335.3 128.5L339.2 130.3L347.4 131.2L360.8 134L369.5 134.2L374.4 136.3L384.8 137.4L405.5 135.8L414 136.8L417.6 139.4L422.8 141.4L426.2 141.5L430.8 138L435.7 132.3L438.9 127.9L438.8 124.4L436 120.6L429.1 117.1L424.7 111.7L420.4 106.2L417.9 104.4L415.8 101.6L415.4 97.5L416.9 94.7L427.2 92.8L440.4 91.7L451.2 92.9L469.1 92.1L480 90.5L488.2 90.8L495.7 90.7L499 88.3L509.5 82.6L514.6 80.6L520.1 76.7L521 72.6L522.1 69.3L525.2 65.8L530.7 61.4L535.4 59.4L540.6 59.7L546.1 61.7L549.6 63.7L553.5 63.1L556.8 59.7L558.9 59L565.2 58.7L567.2 56.6L569.6 46.6L572 38.6L572.5 33.1L578.1 23.9L579.8 18.3L583.2 15.8L587 16L590.2 17.6L594.3 18.5L599.7 17.6L603.5 19.1L605.9 22L613.9 24.1L614.6 25.6L614.4 35.5L618.8 40.2L624.7 44.4L632.7 48.3L637 49.2L639.6 51.9L642 56.6L647.8 61.3L650.8 64.6L651.4 68.1L654 70.1L649.4 72.2L643.4 70.9L633.4 70.2L620.6 77L613.5 79.4L608.5 86.1L598.4 90.1L593 94.4L585.9 101.8L581.2 108.9L570.4 116.2L564.2 125.3L563.8 133.2L570.7 141.2L571.3 148.1L566.5 162.2L569.2 177.1L566.2 183L533.2 193.2L524.6 198.3L512.4 211.6L497.6 216.5L488.5 221.9L475.8 225.1L467.6 234.4L458.7 239.7L448.1 243L440.1 247.1L422.4 247.4L409.8 250.2L400.9 258L374.1 266.9L370.4 273.7L372.2 284L372.3 292L370 298.5L364.1 296.7L361 298.8L357.5 304.9L358.5 311.8L367.7 314L375.2 316.8L385.8 318.2L393.6 321.4L410.3 336L423.9 342.3L427.4 344.7L435.2 347.9L442.4 352.9Z"/>
    <path fill="#d2ad63" fill-opacity=".1" d="M290.2 423.1L293 421.7L293.1 419.5L293.2 412.6L301 407.7L312.2 397.8L317.7 392.4L323.9 387.3L331.2 383.9L338.3 382.3L349.5 381.6L370.9 382.3L375.1 381.7L390 381.2L393.5 382.1L404.3 382.6L416.3 382L422.4 380.5L428 378L432.8 373.5L437.9 365.2L443.3 358.6L446.4 357.4L468.4 392.3L489.3 414.9L507.2 431.3L532.6 462.7L540.1 479.6L540.8 490L545.1 504.3L541.4 512.6L542.5 525.5L540.9 532.2L537.8 537.1L537.7 546.5L538.7 551.5L538.8 558.2L540.8 560.8L543.7 561.8L548.3 559.3L554 558.3L553 566.4L546.1 586.7L540.2 601.5L532.1 614.4L521.8 626.2L509.5 630.8L500.8 632.5L484.2 633L470.5 631L458.7 632.5L453.9 635L450.4 639.2L453 645.7L452.7 650.5L447.6 650.1L437.6 647.3L426.5 647L421.3 645.6L416.1 638.7L410.7 638.9L401.4 643L387.2 643.9L382.2 646.1L380.5 649L382.5 652.6L389.7 657.4L387.3 662.2L379.8 664.6L373.8 658.7L370.1 652.9L365.9 652.5L359.4 654.2L358 660.5L361.1 664.7L366.1 669.6L359.1 675.3L357.2 679.4L352.2 682.3L338.6 675.8L340.6 671.2L346.5 666.8L347.2 662.2L345.2 659.5L325.8 671.1L313.9 684.2L307.5 683.2L304.8 679.9L301.1 678.5L288.2 687L285.8 693.7L281 693.9L279 691.1L278.8 685L276.6 679.9L263.2 672.4L257.1 665.9L260.4 662.2L271.5 664.2L280.4 664L278.7 660.9L275.8 659.4L281.7 657.7L286.6 654.1L282.5 653.1L276.3 655.2L271.1 654.2L269 645.6L262.7 636.9L259.5 628.3L265.7 623.4L268.9 615.8L274.7 604.8L277.6 601.2L285.6 598.6L288.4 595.8L284 594.3L277 593L277.2 589.8L282 588.1L287.3 584.6L297.7 580.3L300.9 572.3L297.9 570.3L291.4 568.3L292.9 564.3L295.6 561.2L294.6 559.3L286.9 554.1L281.8 549.3L283.3 543.9L282.2 535.6L282.9 528.7L282.5 525L278.8 516.5L277.1 508.1L272.2 509.3L268.2 511.4L254 508.5L249.6 508.3L247.7 502L252.8 494.3L264.9 487.5L271.8 486.6L277 483.6L285.2 482.7L295 487.3L303.7 488.2L308.6 496.2L311.6 497.9L312.2 495L319.3 491.5L321 488.9L319.5 487.5L311.3 486.1L304 476.2L303 471.8L300.3 469.1L304.3 461.2L295.8 452.1L291.7 449.3L292.3 441.1L287.9 436L285.4 433.1L283.9 428.2L285.2 426L289 425.2Z"/>
    <path fill="#d2ad63" fill-opacity=".1" d="M262.7 779.1L258.6 780.8L254.9 779.8L249.4 774.5L248.2 772.2L251.2 767.8L263.6 760.6L295.8 753.7L301.5 753.4L314.2 756.3L316.9 761.9L314.6 766.7L311.7 769.9L297 775.4L285.5 778Z"/>
  </g>
  <path d="M290.2 423.1L293 421.7L293.1 419.5L293.2 412.6L301 407.7L312.2 397.8L317.7 392.4L323.9 387.3L331.2 383.9L338.3 382.3L349.5 381.6L370.9 382.3L375.1 381.7L390 381.2L393.5 382.1L404.3 382.6L416.3 382L422.4 380.5L428 378L432.8 373.5L437.9 365.2L443.3 358.6L446.4 357.4" fill="none" stroke="#d2ad63" stroke-opacity=".78" stroke-width="2" stroke-dasharray="5 5"/>
  <g font-family="Avenir, Helvetica, Arial, sans-serif" font-size="12" fill="#edf0e8">
    <g transform="translate(212 325)"><circle r="5" fill="#d2ad63"/><circle r="11" fill="none" stroke="#d2ad63" stroke-opacity=".3"/><text x="17" y="4">Pyongyang</text></g>
    <g transform="translate(321 440)"><circle r="5" fill="#d2ad63"/><circle r="11" fill="none" stroke="#d2ad63" stroke-opacity=".3"/><text x="17" y="4">Seoul</text></g>
    <g transform="translate(523 573)"><circle r="4" fill="#d2ad63"/><text x="14" y="4">Gyeongju</text></g>
  </g>
  <g font-family="Avenir, Helvetica, Arial, sans-serif" font-size="11" fill="#edf0e8" fill-opacity=".38" letter-spacing="2">
    <text x="35" y="520">YELLOW SEA</text>
    <text x="560" y="330">EAST SEA</text>
  </g>
</svg>
